<svg width="1000" height="732" viewBox="0 0 1000 732" fill="none" xmlns="http://www.w3.org/2000/svg">
<g clip-path="url(#clip0)">
<path d="M1000 500C1000 776.142 776.142 1000 500 1000C223.858 1000 0 776.142 0 500C0 223.858 223.858 0 500 0C776.142 0 1000 223.858 1000 500ZM25.0258 500C25.0258 762.321 237.679 974.974 500 974.974C762.321 974.974 974.974 762.321 974.974 500C974.974 237.679 762.321 25.0258 500 25.0258C237.679 25.0258 25.0258 237.679 25.0258 500Z" fill="#EF0F00"/>
<path d="M975 500C975 762.335 762.335 975 500 975C237.665 975 25 762.335 25 500C25 237.665 237.665 25 500 25C762.335 25 975 237.665 975 500ZM50.0014 500C50.0014 748.527 251.473 949.999 500 949.999C748.527 949.999 949.999 748.527 949.999 500C949.999 251.473 748.527 50.0014 500 50.0014C251.473 50.0014 50.0014 251.473 50.0014 500Z" fill="#F99F27"/>
<path d="M950 500C950 748.528 748.528 950 500 950C251.472 950 50 748.528 50 500C50 251.472 251.472 50 500 50C748.528 50 950 251.472 950 500ZM75.0014 500C75.0014 734.72 265.28 924.999 500 924.999C734.72 924.999 924.999 734.72 924.999 500C924.999 265.28 734.72 75.0014 500 75.0014C265.28 75.0014 75.0014 265.28 75.0014 500Z" fill="#FFFF40"/>
<path d="M925 500C925 734.721 734.721 925 500 925C265.279 925 75 734.721 75 500C75 265.279 265.279 75 500 75C734.721 75 925 265.279 925 500ZM100.022 500C100.022 720.902 279.098 899.978 500 899.978C720.902 899.978 899.978 720.902 899.978 500C899.978 279.098 720.902 100.022 500 100.022C279.098 100.022 100.022 279.098 100.022 500Z" fill="#3DDD42"/>
<path d="M900 500C900 720.914 720.914 900 500 900C279.086 900 100 720.914 100 500C100 279.086 279.086 100 500 100C720.914 100 900 279.086 900 500ZM125.001 500C125.001 707.106 292.894 874.999 500 874.999C707.106 874.999 874.999 707.106 874.999 500C874.999 292.894 707.106 125.001 500 125.001C292.894 125.001 125.001 292.894 125.001 500Z" fill="#23B6E8"/>
<path d="M875 500C875 707.107 707.107 875 500 875C292.893 875 125 707.107 125 500C125 292.893 292.893 125 500 125C707.107 125 875 292.893 875 500ZM149.95 500C149.95 693.327 306.673 850.05 500 850.05C693.327 850.05 850.05 693.327 850.05 500C850.05 306.673 693.327 149.95 500 149.95C306.673 149.95 149.95 306.673 149.95 500Z" fill="#9B36F7"/>
<path d="M0 500C-5.74026e-06 565.661 12.9329 630.679 38.0602 691.342C63.1876 752.004 100.017 807.124 146.447 853.553C192.876 899.983 247.995 936.812 308.658 961.94C369.321 987.067 434.339 1000 500 1000C565.661 1000 630.679 987.067 691.342 961.94C752.005 936.812 807.124 899.983 853.553 853.553C899.983 807.124 936.812 752.004 961.94 691.342C987.067 630.679 1000 565.661 1000 500L850.042 500C850.042 545.968 840.988 591.486 823.397 633.955C805.805 676.424 780.022 715.013 747.517 747.517C715.013 780.021 676.424 805.805 633.955 823.397C591.486 840.988 545.968 850.042 500 850.042C454.032 850.042 408.514 840.988 366.045 823.397C323.576 805.805 284.987 780.022 252.483 747.517C219.978 715.013 194.195 676.424 176.603 633.955C159.012 591.486 149.958 545.968 149.958 500L0 500Z" fill="url(#paint0_linear)"/>
</g>
<defs>
<linearGradient id="paint0_linear" x1="500" y1="0" x2="500" y2="1000" gradientUnits="userSpaceOnUse">
<stop offset="0.484375" stop-opacity="0"/>
<stop offset="0.546875" stop-opacity="0.529412"/>
<stop offset="0.583333" stop-opacity="0.753501"/>
<stop offset="0.640625"/>
</linearGradient>
<clipPath id="clip0">
<path d="M0 500C0 223.858 223.858 0 500 0V0C776.142 0 1000 223.858 1000 500V516.706C1000 635.61 903.61 732 784.706 732H215.294C96.3905 732 0 635.61 0 516.706V500Z" fill="white"/>
</clipPath>
</defs>
</svg>
